<svg width="64" height="47" viewBox="0 0 64 47" fill="none" xmlns="http://www.w3.org/2000/svg">
<path fill-rule="evenodd" clip-rule="evenodd" d="M53.2258 0.474077C53.6134 0.0866631 54.2416 0.0867813 54.629 0.47434C60.6293 6.47685 64 14.6167 64 23.1039C64 31.5911 60.6293 39.7309 54.629 45.7334C54.2416 46.121 53.6134 46.1211 53.2258 45.7337C52.8383 45.3463 52.8381 44.718 53.2255 44.3305C58.8538 38.7001 62.0156 31.065 62.0156 23.1039C62.0156 15.1428 58.8538 7.50767 53.2255 1.87729C52.8381 1.48973 52.8383 0.86149 53.2258 0.474077ZM10.7829 0.474526C11.1702 0.862187 11.1699 1.49043 10.7822 1.87774C7.99315 4.66429 5.78059 7.97319 4.27101 11.6153C2.76144 15.2574 1.98444 19.1613 1.98444 23.1039C1.98444 27.0465 2.76144 30.9504 4.27101 34.5925C5.78059 38.2346 7.99315 41.5435 10.7822 44.33C11.1699 44.7174 11.1702 45.3456 10.7829 45.7333C10.3955 46.1209 9.76731 46.1212 9.37964 45.7339C6.40611 42.763 4.04722 39.2353 2.4378 35.3523C0.828384 31.4693 0 27.3072 0 23.1039C0 18.9006 0.828384 14.7385 2.4378 10.8555C4.04722 6.97248 6.40611 3.44474 9.37964 0.473891C9.76731 0.0865803 10.3955 0.0868643 10.7829 0.474526ZM17.0435 6.73528C17.4309 7.12283 17.4308 7.75107 17.0433 8.1385C15.0783 10.1029 13.5195 12.4352 12.456 15.0022C11.3925 17.5691 10.8451 20.3205 10.8451 23.099C10.8451 25.8775 11.3925 28.6288 12.456 31.1958C13.5195 33.7628 15.0783 36.0951 17.0433 38.0595C17.4308 38.4469 17.4309 39.0752 17.0435 39.4627C16.6561 39.8502 16.0278 39.8503 15.6403 39.4629C13.4909 37.3142 11.786 34.7631 10.6227 31.9554C9.45943 29.1476 8.8607 26.1382 8.8607 23.099C8.8607 20.0598 9.45943 17.0504 10.6227 14.2426C11.786 11.4349 13.4909 8.88378 15.6403 6.73507C16.0278 6.34765 16.6561 6.34774 17.0435 6.73528ZM46.9646 6.73528C47.352 6.34774 47.9803 6.34765 48.3678 6.73507C50.5172 8.88378 52.2222 11.4349 53.3854 14.2426C54.5487 17.0504 55.1474 20.0598 55.1474 23.099C55.1474 26.1382 54.5487 29.1476 53.3854 31.9554C52.2222 34.7631 50.5172 37.3142 48.3678 39.4629C47.9803 39.8503 47.352 39.8502 46.9646 39.4627C46.5772 39.0752 46.5773 38.4469 46.9648 38.0595C48.9298 36.0951 50.4886 33.7628 51.5521 31.1958C52.6156 28.6288 53.163 25.8775 53.163 23.099C53.163 20.3205 52.6156 17.5691 51.5521 15.0022C50.4886 12.4352 48.9298 10.1029 46.9648 8.1385C46.5773 7.75107 46.5772 7.12283 46.9646 6.73528ZM23.2644 13.0055C23.6521 13.3927 23.6525 14.021 23.2652 14.4087C20.9608 16.7156 19.6664 19.843 19.6664 23.1038C19.6664 26.3645 20.9608 29.4919 23.2652 31.7989C23.6525 32.1866 23.6521 32.8148 23.2644 33.2021C22.8767 33.5894 22.2485 33.589 21.8612 33.2013C19.1851 30.5223 17.6819 26.8905 17.6819 23.1038C17.6819 19.3171 19.1851 15.6853 21.8612 13.0062C22.2485 12.6185 22.8767 12.6182 23.2644 13.0055ZM40.7125 13.007C41.0993 12.6189 41.7276 12.6178 42.1157 13.0047C43.4448 14.3293 44.4994 15.9032 45.2189 17.6362C45.9385 19.3693 46.3089 21.2273 46.3089 23.1038C46.3089 24.9803 45.9385 26.8383 45.2189 28.5713C44.4994 30.3043 43.4448 31.8783 42.1157 33.2029C41.7276 33.5897 41.0993 33.5887 40.7125 33.2005C40.3257 32.8124 40.3267 32.1841 40.7149 31.7973C41.859 30.6571 42.7668 29.3022 43.3862 27.8103C44.0056 26.3185 44.3245 24.7191 44.3245 23.1038C44.3245 21.4885 44.0056 19.889 43.3862 18.3972C42.7668 16.9054 41.859 15.5505 40.7149 14.4102C40.3267 14.0234 40.3257 13.3952 40.7125 13.007ZM31.9992 19.6709C30.1031 19.6709 28.5661 21.208 28.5661 23.104C28.5661 25.0001 30.1031 26.5371 31.9992 26.5371C33.8952 26.5371 35.4322 25.0001 35.4322 23.104C35.4322 21.208 33.8952 19.6709 31.9992 19.6709ZM26.5816 23.104C26.5816 20.112 29.0071 17.6865 31.9992 17.6865C34.9912 17.6865 37.4167 20.112 37.4167 23.104C37.4167 26.096 34.9912 28.5216 31.9992 28.5216C29.0071 28.5216 26.5816 26.096 26.5816 23.104Z" fill="#4FA67C"/>
</svg>
