<?xml version="1.0" encoding="utf-8"?>
<!-- Generator: Adobe Illustrator 25.4.1, SVG Export Plug-In . SVG Version: 6.00 Build 0)  -->
<svg version="1.1" id="Calque_1" xmlns="http://www.w3.org/2000/svg" xmlns:xlink="http://www.w3.org/1999/xlink" x="0px" y="0px"
	 viewBox="0 0 446 530" style="enable-background:new 0 0 446 530;" xml:space="preserve">
<style type="text/css">
	.st0{fill:#666462;}
	.st1{fill:none;stroke:#FBCC0B;stroke-width:2;stroke-linecap:round;stroke-linejoin:round;stroke-miterlimit:10;}
	.st2{fill-rule:evenodd;clip-rule:evenodd;fill:#FBCC0B;}
	.st3{fill:none;stroke:#FBCC0B;stroke-width:2;stroke-linecap:round;}
	.st4{fill:none;}
</style>
<path class="st0" d="M64.6,493.2c0-20.1,16.3-36.4,36.4-36.4l0,0c20.1,0,36.4,16.3,36.4,36.4l0,0c0,20.1-16.3,36.4-36.4,36.4l0,0
	C80.9,529.6,64.6,513.3,64.6,493.2L64.6,493.2z"/>
<path class="st1" d="M105.7,508.1c0-0.2,0.1-0.5,0.1-0.7c0.2-1.2,0.6-2.5,1-3.6c0.7-1.7,1.6-3.4,2.7-4.9c0.8-1,1.5-1.9,2.2-2.9
	c0.6-0.8,1-1.7,1.4-2.6c0.6-1.7,0.8-3.4,0.7-5.1c-0.1-1.8-0.6-3.5-1.5-5.1c-1.3-2.2-3.1-3.9-5.4-5.1s-4.8-1.6-7.4-1.3
	c-1.4,0.2-2.8,0.5-4.1,1.1c-2.3,1-4.1,2.6-5.4,4.6c-1.5,2.3-2.1,4.8-1.9,7.5c0.1,1.7,0.7,3.2,1.5,4.7s1.8,2.9,2.8,4.3
	c1.1,1.6,2,3.2,2.8,5c0.5,1.2,1,2.8,1.1,4.1"/>
<path class="st2" d="M96.2,512.5c0-0.4,0.3-0.7,0.7-0.7h8.1c0.4,0,0.7,0.3,0.7,0.7s-0.3,0.7-0.7,0.7h-8.1
	C96.5,513.3,96.2,512.9,96.2,512.5z"/>
<path class="st2" d="M101.3,494.3c0.4,0,0.7,0.3,0.7,0.7v12.4c0,0.4-0.3,0.7-0.7,0.7c-0.4,0-0.7-0.3-0.7-0.7V495
	C100.6,494.7,100.9,494.3,101.3,494.3z"/>
<path class="st2" d="M94.9,488.7c0.3-0.3,0.8-0.3,1,0l5,5l5-5c0.3-0.3,0.8-0.3,1,0c0.3,0.3,0.3,0.8,0,1l-5.5,5.5
	c-0.3,0.3-0.8,0.3-1,0l-5.5-5.5C94.6,489.4,94.6,489,94.9,488.7z"/>
<path class="st0" d="M252.7,493.2c0-20.1,16.3-36.4,36.4-36.4l0,0c20.1,0,36.4,16.3,36.4,36.4l0,0c0,20.1-16.3,36.4-36.4,36.4l0,0
	C269,529.6,252.7,513.3,252.7,493.2L252.7,493.2z"/>
<path class="st2" d="M278.4,478.5c0-0.9,0.7-1.6,1.6-1.6h19.4c0.9,0,1.6,0.7,1.6,1.6v8.3h-22.6V478.5z M276.4,487.8v17.7
	c0,2,1.6,3.6,3.6,3.6h0.9v1.3c0,0.6,0.4,1,1,1s1-0.4,1-1v-1.3h13.6v1.3c0,0.6,0.4,1,1,1s1-0.4,1-1v-1.3h0.9c2,0,3.6-1.6,3.6-3.6v-27
	c0-2-1.6-3.6-3.6-3.6H280c-2,0-3.6,1.6-3.6,3.6V487.8z M278.4,488.8H301v16.7c0,0.9-0.7,1.6-1.6,1.6h-1.9h-15.6H280
	c-0.9,0-1.6-0.7-1.6-1.6V488.8z M282.9,480.9c0-0.6-0.4-1-1-1s-1,0.4-1,1v2.3c0,0.6,0.4,1,1,1s1-0.4,1-1V480.9z M281.9,491.5
	c0.6,0,1,0.4,1,1v7.1c0,0.6-0.4,1-1,1s-1-0.4-1-1v-7.1C280.9,491.9,281.3,491.5,281.9,491.5z"/>
<path class="st0" d="M158.7,493.2c0-20.1,16.3-36.4,36.4-36.4l0,0c20.1,0,36.4,16.3,36.4,36.4l0,0c0,20.1-16.3,36.4-36.4,36.4l0,0
	C174.9,529.6,158.7,513.3,158.7,493.2L158.7,493.2z"/>
<path class="st2" d="M180.5,477.9c-1.7,0-3,1.3-3,3v16.6c0,1.7,1.3,3,3,3h30c1.7,0,3-1.3,3-3v-16.6c0-1.7-1.3-3-3-3H180.5z
	 M179.5,480.9c0-0.6,0.4-1,1-1h30c0.6,0,1,0.4,1,1v16.6c0,0.6-0.4,1-1,1h-30c-0.6,0-1-0.4-1-1V480.9z M201.3,484.9
	c0.5-0.3,0.6-0.9,0.3-1.4s-0.9-0.6-1.4-0.3l-12.2,7.4c-0.5,0.3-0.6,0.9-0.3,1.4s0.9,0.6,1.4,0.3L201.3,484.9z M199.6,489.8
	c0.5-0.3,0.6-0.9,0.3-1.4s-0.9-0.6-1.4-0.3l-5.6,3.4c-0.5,0.3-0.6,0.9-0.3,1.4s0.9,0.6,1.4,0.3L199.6,489.8z M190.3,501.9
	c0.6,0,1,0.4,1,1v1.9h8.4v-1.9c0-0.6,0.4-1,1-1s1,0.4,1,1v1.9h10.8c0.6,0,1,0.4,1,1s-0.4,1-1,1h-34c-0.6,0-1-0.4-1-1s0.4-1,1-1h10.8
	v-1.9C189.3,502.4,189.7,501.9,190.3,501.9z"/>
<path class="st2" d="M193,412c0,0.4,0.2,0.7,0.5,0.7s0.5-0.3,0.5-0.7v-11.3h65.8v11.1c0,0.4,0.2,0.7,0.5,0.7s0.5-0.3,0.5-0.7V400
	l0,0c0,0,0,0,0-0.1c0-0.3-0.2-0.5-0.4-0.6h-0.1l0,0H194v-12.7c0-0.4-0.2-0.7-0.5-0.7s-0.5,0.3-0.5,0.7v12.7h-65.3
	c-0.3,0-0.5,0.3-0.5,0.7c0,0.4,0.2,0.7,0.5,0.7H193V412z M126.7,412.5c-0.3,0-0.5-0.3-0.5-0.7V400c0-0.4,0.2-0.7,0.5-0.7
	s0.5,0.3,0.5,0.7v11.8C127.2,412.2,127,412.5,126.7,412.5z"/>
<circle class="st0" cx="407.7" cy="227" r="37.5"/>
<path class="st2" d="M399.2,214.5H397c-0.3,0-0.6,0.1-0.8,0.3c-0.2,0.2-0.3,0.4-0.3,0.7v0.9h-4.4c-1.2,0-2.2,1-2.2,2.2v16.3
	c0,1.2,1,2.2,2.2,2.2h31.4c1.2,0,2.2-1,2.2-2.2v-16.3c0-1.2-1-2.2-2.2-2.2h-4.4v-0.9c0-0.3-0.1-0.5-0.3-0.7
	c-0.2-0.2-0.5-0.3-0.8-0.3h-2.2c-0.3,0-0.6,0.1-0.8,0.3c-0.2,0.2-0.3,0.4-0.3,0.7v0.9h-13.6v-0.9c0-0.3-0.1-0.5-0.3-0.7
	C399.8,214.6,399.5,214.5,399.2,214.5z M390.8,218.6c0-0.4,0.3-0.7,0.7-0.7h31.4c0.4,0,0.7,0.3,0.7,0.7v16.3c0,0.4-0.3,0.7-0.7,0.7
	h-31.4c-0.4,0-0.7-0.3-0.7-0.7V218.6z M415.8,224.2c0-0.4-0.3-0.7-0.7-0.7s-0.7,0.3-0.7,0.7v1.8h-1.8c-0.4,0-0.7,0.3-0.7,0.7
	s0.3,0.7,0.7,0.7h1.8v2.5c0,0.4,0.3,0.7,0.7,0.7s0.7-0.3,0.7-0.7v-2.5h2.5c0.4,0,0.7-0.3,0.7-0.7s-0.3-0.7-0.7-0.7h-2.5V224.2z
	 M395.9,226c-0.4,0-0.7,0.3-0.7,0.7s0.3,0.7,0.7,0.7h5.8c0.4,0,0.7-0.3,0.7-0.7s-0.3-0.7-0.7-0.7H395.9z"/>
<line class="st3" x1="339" y1="226" x2="346.7" y2="226"/>
<rect y="104.9" class="st4" width="369.6" height="293.1"/>
<path class="st2" d="M25.2,132.9c-0.2,0.5-0.1,1.2,0.3,1.5l4.4,3.5c0.4,0.3,0.9,0.1,1.1-0.4s0.1-1.2-0.3-1.5l-4.4-3.5
	C25.9,132.2,25.4,132.4,25.2,132.9z"/>
<path class="st2" d="M33.4,117.4c-0.4,0.3-0.5,1-0.3,1.5l3.5,8.1c0.2,0.5,0.7,0.7,1.1,0.4c0.4-0.3,0.5-1,0.3-1.5l-3.5-8.1
	C34.3,117.3,33.8,117.1,33.4,117.4z"/>
<path class="st2" d="M48.4,108.7c0.4,0.1,0.7,0.7,0.6,1.3l-1.8,12.6c-0.1,0.6-0.5,1-0.9,0.9s-0.7-0.7-0.6-1.3l1.8-12.6
	C47.6,108.9,48,108.6,48.4,108.7z"/>
<line class="st3" x1="192.8" y1="108.4" x2="192.8" y2="97.2"/>
<path class="st0" d="M157.9,36.4c0-20.1,16.3-36.4,36.4-36.4l0,0c20.1,0,36.4,16.3,36.4,36.4l0,0c0,20.1-16.3,36.4-36.4,36.4l0,0
	C174.2,72.7,157.9,56.4,157.9,36.4L157.9,36.4z"/>
<path class="st2" d="M202.3,18.4c0.1,0,0.2,0,0.3,0h6c0.6,0,1.1,0.2,1.6,0.5c0.4,0.3,0.8,0.8,0.9,1.4l0,0l2.2,8c0,0.1,0,0.1,0.1,0.2
	l2.7,10.1l0,0c0.1,0.5,0.1,1,0,1.4s-0.3,0.9-0.6,1.3c-0.3,0.4-0.7,0.7-1.1,0.9c-0.4,0.2-0.9,0.3-1.4,0.3v-0.7v0.7h-36.3l0,0
	c-0.5,0-1-0.1-1.4-0.3s-0.8-0.5-1.1-0.9s-0.5-0.8-0.6-1.3s-0.1-1,0-1.4l0,0l2.7-10.1c0-0.1,0-0.1,0.1-0.2l2.2-8l0,0
	c0.1-0.5,0.5-1,0.9-1.4c0.4-0.3,1-0.5,1.6-0.5h6c0.1,0,0.2-0.1,0.3,0c0.1,0,0.1,0,0.1,0h7.1c0.1,0,0.2,0,0.2,0c0.1,0,0.2,0,0.2,0
	h7.1C202.2,18.4,202.2,18.4,202.3,18.4z M195.5,19.9h6.3l1.1,8h-7.3v-8H195.5z M203.2,19.9l1.1,8h7.3l-1.9-7.2l0,0
	c-0.1-0.2-0.2-0.4-0.4-0.6c-0.2-0.1-0.4-0.2-0.7-0.2l0,0H203.2z M195.5,29.3h7.5l1.6,11.8h-9.1V29.3z M204.5,29.3l1.6,11.8h6.8
	c0.3,0,0.5-0.1,0.8-0.2c0.2-0.1,0.5-0.3,0.6-0.5s0.3-0.5,0.3-0.7c0.1-0.3,0.1-0.5,0-0.8l-2.6-9.6C212,29.3,204.5,29.3,204.5,29.3z
	 M186.2,19.9h-5.4l0,0l0,0c-0.2,0-0.5,0.1-0.7,0.2s-0.3,0.3-0.4,0.6l0,0l-1.9,7.2h7.3L186.2,19.9z M186.7,27.8l1.1-8h6.3v8H186.7z
	 M185,29.3h-7.5l-2.6,9.6c-0.1,0.3-0.1,0.5,0,0.8s0.2,0.5,0.3,0.7c0.2,0.2,0.4,0.4,0.6,0.5c0.2,0.1,0.5,0.2,0.8,0.2h6.8L185,29.3z
	 M184.9,41.1l1.6-11.8h7.5v11.8H184.9z M192.3,47.5c0-0.4-0.3-0.7-0.7-0.7s-0.7,0.3-0.7,0.7v4.7h-5.3c-0.4,0-0.7,0.3-0.7,0.7
	s0.3,0.7,0.7,0.7H204c0.4,0,0.7-0.3,0.7-0.7s-0.3-0.7-0.7-0.7h-5.8v-4.7c0-0.4-0.3-0.7-0.7-0.7s-0.7,0.3-0.7,0.7v4.7h-4.4v-4.7
	H192.3z"/>
<image style="overflow:visible;" width="370" height="294" xlink:href="../product.png"  transform="matrix(1 0 0 1 0 99)">
</image>
</svg>
