<svg width="64" height="46" viewBox="0 0 64 46" fill="none" xmlns="http://www.w3.org/2000/svg">
<path fill-rule="evenodd" clip-rule="evenodd" d="M59.3336 2.37126C59.5713 1.28653 60.6089 0.683313 61.6512 1.02394C62.6935 1.36456 63.3458 2.52004 63.1082 3.60477L60.3678 16.1138C60.1302 17.1985 59.0926 17.8018 58.0502 17.4611C57.0079 17.1205 56.3556 15.965 56.5932 14.8803L59.3336 2.37126ZM32.7046 0.106556C31.7121 0.446983 31.2312 1.60149 31.6304 2.68521L36.2914 15.337C36.6906 16.4207 37.8188 17.0233 38.8113 16.6828C39.8038 16.3424 40.2847 15.1879 39.8855 14.1042L35.2245 1.45241C34.8253 0.368685 33.697 -0.233873 32.7046 0.106556ZM10.9731 17.4427C10.0875 16.7334 9.85553 15.4387 10.4551 14.5509C11.0546 13.663 12.2585 13.5183 13.1441 14.2275L23.6571 22.6469C24.5427 23.3562 24.7747 24.6509 24.1751 25.5387C23.5756 26.4266 22.3717 26.5713 21.4861 25.8621L10.9731 17.4427ZM15.4024 41.309C16.469 41.4797 17.2718 42.5291 17.1957 43.6528C17.1195 44.7765 16.1931 45.5491 15.1265 45.3783L2.44989 43.349C1.38334 43.1782 0.580482 42.1288 0.656667 41.0051C0.732848 39.8814 1.65923 39.1089 2.72578 39.2796L15.4024 41.309Z" fill="#FBCC0B"/>
</svg>
